<?xml version="1.0" encoding="utf-8"?>
<!-- Generator: Adobe Illustrator 23.0.3, SVG Export Plug-In . SVG Version: 6.00 Build 0)  -->
<svg version="1.1" xmlns="http://www.w3.org/2000/svg" xmlns:xlink="http://www.w3.org/1999/xlink" x="0px" y="0px"
	 viewBox="0 0 300 300" style="enable-background:new 0 0 300 300;" xml:space="preserve">
<style type="text/css">
	.st0{fill:#116CA3;}
	.st1{fill:none;stroke:#000000;stroke-miterlimit:10;}
	.st2{fill:#AAAAAA;}
	.st3{fill:#AAAAAA;stroke:#000000;stroke-miterlimit:10;}
	.st4{fill:#DAD9E0;stroke:#000000;stroke-miterlimit:10;}
</style>
<g>
	<path class="st0" d="M299.5,269.5c0,16.5-13.5,30-30,30h-240c-16.5,0-30-13.5-30-30v-240c0-16.5,13.5-30,30-30h240
		c16.5,0,30,13.5,30,30V269.5z"/>
	<path class="st1" d="M299.5,269.5c0,16.5-13.5,30-30,30h-240c-16.5,0-30-13.5-30-30v-240c0-16.5,13.5-30,30-30h240
		c16.5,0,30,13.5,30,30V269.5z"/>
</g>
<g>
	<path class="st2" d="M299.42,267.53c-0.01,17.69-14.37,32.03-32.06,32.02c-9.33-0.01-30.46-0.02-46.96-0.03l-71.08-0.05
		c-23.96-0.02-39.42-25.36-28.48-46.67l39.21-76.37c7.54-14.68,19.87-38.7,27.4-53.38l34.61-67.43
		c11.92-23.22,45.12-23.21,57.02,0.02l16.92,33.04c3.49,7.82,3.53,9.54,3.52,14.63L299.42,267.53z"/>
	<path class="st1" d="M299.42,267.53c-0.01,17.69-14.37,32.03-32.06,32.02c-9.33-0.01-30.46-0.02-46.96-0.03l-71.08-0.05
		c-23.96-0.02-39.42-25.36-28.48-46.67l39.21-76.37c7.54-14.68,19.87-38.7,27.4-53.38l34.61-67.43
		c11.92-23.22,45.12-23.21,57.02,0.02l16.92,33.04c3.49,7.82,3.53,9.54,3.52,14.63L299.42,267.53z"/>
</g>
<polygon class="st3" points="234,299.5 137,299.5 40,299.5 88.5,198.63 137,97.76 185.5,198.63 "/>
<g>
	<polygon class="st4" points="161.5,149.5 145.5,141.5 137.5,150.5 126.5,141.5 113.5,149.5 126.5,120.61 137,98.72 147.5,120.61 	
		"/>
</g>
<polygon class="st4" points="285.5,69.5 261.5,58.5 246.5,68.5 234.5,59.5 218.5,64.5 173.75,150.5 250.5,0.5 281.5,62.5 "/>
<path class="st4" d="M28.5,40.5c13.78,3.23,15.78,7.84,24,10c16.83,4.42,21.92-11.32,44-12c18.08-0.55,20.6,9.82,40,9
	c19.28-0.82,33.46-11.78,33-13c-0.45-1.19-14.67,7.28-33,4c-9.21-1.65-8.12-4.24-22-8c-11.07-3-21.34-5.79-32-2
	c-7.67,2.73-7.29,5.92-14,7c-6.99,1.12-8.95-2.09-23-5c-12.46-2.58-17.9-1.51-20-1c-5.79,1.39-12.36,4.71-12,7
	C13.83,38.64,19.99,38.5,28.5,40.5z"/>
<path class="st4" d="M55.5,73.5c13.78,3.23,15.78,7.84,24,10c16.83,4.42,21.92-11.32,44-12c18.08-0.55,20.6,9.82,40,9
	c19.28-0.82,33.46-11.78,33-13c-0.45-1.19-14.67,7.28-33,4c-9.21-1.65-8.12-4.24-22-8c-11.07-3-21.34-5.79-32-2
	c-7.67,2.73-7.29,5.92-14,7c-6.99,1.12-8.95-2.09-23-5c-12.46-2.58-17.9-1.51-20-1c-5.79,1.39-12.36,4.71-12,7
	C40.83,71.64,46.99,71.5,55.5,73.5z"/>
</svg>
